<svg width="8" height="9" viewBox="0 0 8 9" fill="none" xmlns="http://www.w3.org/2000/svg">
<path d="M7.63473 0.48523H0.364966C0.163299 0.485332 -0.00013597 0.649011 8.48839e-08 0.850684C0.000136139 1.05239 0.163776 1.2158 0.365476 1.2157H6.75497L0.108299 7.86283C0.039864 7.9311 0.00146267 8.02392 0.00163273 8.12059C0.00193886 8.32124 0.16483 8.48363 0.365476 8.48332C0.461905 8.48356 0.554422 8.44536 0.622619 8.37716L7.26956 1.72973V8.12032C7.26963 8.32192 7.43316 8.4853 7.63473 8.48523C7.83639 8.48516 8.00007 8.32165 8 8.11998V0.850174C7.99993 0.648568 7.83639 0.485127 7.63473 0.48523Z" fill="white"/>
</svg>
