<svg width="14" height="14" viewBox="0 0 14 14" fill="none" xmlns="http://www.w3.org/2000/svg">
<path fill-rule="evenodd" clip-rule="evenodd" d="M6.99997 0.416687C10.6277 0.416687 13.5685 3.35754 13.5685 6.98526C13.5685 10.2638 11.1665 12.9813 8.02632 13.474V13.474C8.02636 13.474 8.02639 13.474 8.02643 13.474V8.88399H9.55684L9.55684 8.88396H9.55695L9.84818 6.98524H8.02643V5.75308C8.02643 5.31987 8.2034 4.8958 8.73544 4.76692C8.84135 4.74127 8.96132 4.72732 9.09676 4.72732H9.92504V4.72729H9.92516V3.1108C9.92516 3.1108 9.17345 2.98251 8.45479 2.98251C8.18956 2.98251 7.94057 3.01093 7.71037 3.06681C6.63826 3.327 5.97363 4.18283 5.97363 5.53812V6.98524H4.30595V6.98526H4.30584V8.88399H5.97363V13.474C2.83343 12.9813 0.431396 10.2638 0.431396 6.98526C0.431396 3.35754 3.37225 0.416687 6.99997 0.416687Z" fill="#7ACAF1"/>
</svg>
