<svg>
    <path xmlns="http://www.w3.org/2000/svg" d="M0 0 C85.8 0 171.6 0 260 0 C260 2.64 260 5.28 260 8 C258.68 8 257.36 8 256 8 C256 10.64 256 13.28 256 16 C254.68 16 253.36 16 252 16 C252 19.96 252 23.92 252 28 C250.68 28 249.36 28 248 28 C248 30.64 248 33.28 248 36 C246.68 36 245.36 36 244 36 C244 38.64 244 41.28 244 44 C242.68 44 241.36 44 240 44 C240 46.64 240 49.28 240 52 C238.68 52 237.36 52 236 52 C236 55.96 236 59.92 236 64 C234.68 64 233.36 64 232 64 C232 66.64 232 69.28 232 72 C230.68 72 229.36 72 228 72 C228 74.64 228 77.28 228 80 C226.68 80 225.36 80 224 80 C224 82.64 224 85.28 224 88 C222.68 88 221.36 88 220 88 C220 90.64 220 93.28 220 96 C218.68 96 217.36 96 216 96 C216 99.96 216 103.92 216 108 C214.68 108 213.36 108 212 108 C212 110.64 212 113.28 212 116 C210.68 116 209.36 116 208 116 C208 118.64 208 121.28 208 124 C206.68 124 205.36 124 204 124 C204 126.64 204 129.28 204 132 C202.68 132 201.36 132 200 132 C200 135.96 200 139.92 200 144 C198.68 144 197.36 144 196 144 C196 146.64 196 149.28 196 152 C194.68 152 193.36 152 192 152 C192 154.64 192 157.28 192 160 C190.68 160 189.36 160 188 160 C188 162.64 188 165.28 188 168 C186.68 168 185.36 168 184 168 C184 171.96 184 175.92 184 180 C182.68 180 181.36 180 180 180 C180 182.64 180 185.28 180 188 C178.68 188 177.36 188 176 188 C176 190.64 176 193.28 176 196 C174.68 196 173.36 196 172 196 C172 198.64 172 201.28 172 204 C170.68 204 169.36 204 168 204 C168 206.64 168 209.28 168 212 C166.68 212 165.36 212 164 212 C164 215.96 164 219.92 164 224 C162.68 224 161.36 224 160 224 C160 226.64 160 229.28 160 232 C158.68 232 157.36 232 156 232 C156 234.64 156 237.28 156 240 C154.68 240 153.36 240 152 240 C152 242.64 152 245.28 152 248 C150.68 248 149.36 248 148 248 C148 251.96 148 255.92 148 260 C146.68 260 145.36 260 144 260 C144 262.64 144 265.28 144 268 C142.68 268 141.36 268 140 268 C140 270.64 140 273.28 140 276 C138.68 276 137.36 276 136 276 C136 278.64 136 281.28 136 284 C134.68 284 133.36 284 132 284 C132 287.96 132 291.92 132 296 C130.68 296 129.36 296 128 296 C128 298.64 128 301.28 128 304 C126.68 304 125.36 304 124 304 C124 306.64 124 309.28 124 312 C122.68 312 121.36 312 120 312 C120 314.64 120 317.28 120 320 C118.68 320 117.36 320 116 320 C116 322.64 116 325.28 116 328 C114.68 328 113.36 328 112 328 C112 331.96 112 335.92 112 340 C110.68 340 109.36 340 108 340 C108 342.64 108 345.28 108 348 C106.68 348 105.36 348 104 348 C104 350.64 104 353.28 104 356 C102.68 356 101.36 356 100 356 C100 358.64 100 361.28 100 364 C98.68 364 97.36 364 96 364 C96 367.96 96 371.92 96 376 C94.68 376 93.36 376 92 376 C92 378.64 92 381.28 92 384 C90.68 384 89.36 384 88 384 C88 386.64 88 389.28 88 392 C86.68 392 85.36 392 84 392 C84 394.64 84 397.28 84 400 C82.68 400 81.36 400 80 400 C80 402.64 80 405.28 80 408 C78.68 408 77.36 408 76 408 C76 411.96 76 415.92 76 420 C74.68 420 73.36 420 72 420 C72 422.64 72 425.28 72 428 C70.68 428 69.36 428 68 428 C68 430.64 68 433.28 68 436 C66.68 436 65.36 436 64 436 C64 438.64 64 441.28 64 444 C62.68 444 61.36 444 60 444 C60 447.96 60 451.92 60 456 C58.68 456 57.36 456 56 456 C56 458.64 56 461.28 56 464 C54.68 464 53.36 464 52 464 C52 466.64 52 469.28 52 472 C50.68 472 49.36 472 48 472 C48 474.64 48 477.28 48 480 C46.68 480 45.36 480 44 480 C44 483.96 44 487.92 44 492 C42.68 492 41.36 492 40 492 C40 494.64 40 497.28 40 500 C38.68 500 37.36 500 36 500 C36 502.64 36 505.28 36 508 C34.68 508 33.36 508 32 508 C32 510.64 32 513.28 32 516 C30.68 516 29.36 516 28 516 C28 518.64 28 521.28 28 524 C26.68 524 25.36 524 24 524 C24 527.96 24 531.92 24 536 C22.68 536 21.36 536 20 536 C20 538.64 20 541.28 20 544 C18.68 544 17.36 544 16 544 C16 546.64 16 549.28 16 552 C14.68 552 13.36 552 12 552 C12 554.64 12 557.28 12 560 C10.68 560 9.36 560 8 560 C8 563.96 8 567.92 8 572 C6.68 572 5.36 572 4 572 C4 574.64 4 577.28 4 580 C2.68 580 1.36 580 0 580 C0 582.64 0 585.28 0 588 C-1.32 588 -2.64 588 -4 588 C-4 590.64 -4 593.28 -4 596 C-5.32 596 -6.64 596 -8 596 C-8 599.96 -8 603.92 -8 608 C-9.32 608 -10.64 608 -12 608 C-12 610.64 -12 613.28 -12 616 C-13.32 616 -14.64 616 -16 616 C-16 618.64 -16 621.28 -16 624 C-17.32 624 -18.64 624 -20 624 C-20 626.64 -20 629.28 -20 632 C-21.32 632 -22.64 632 -24 632 C-24 634.64 -24 637.28 -24 640 C-25.32 640 -26.64 640 -28 640 C-28 643.96 -28 647.92 -28 652 C-29.32 652 -30.64 652 -32 652 C-32 654.64 -32 657.28 -32 660 C-33.32 660 -34.64 660 -36 660 C-36 662.64 -36 665.28 -36 668 C-37.32 668 -38.64 668 -40 668 C-40 670.64 -40 673.28 -40 676 C-41.32 676 -42.64 676 -44 676 C-44 679.96 -44 683.92 -44 688 C-45.32 688 -46.64 688 -48 688 C-48 690.64 -48 693.28 -48 696 C-49.32 696 -50.64 696 -52 696 C-52 698.64 -52 701.28 -52 704 C-53.32 704 -54.64 704 -56 704 C-56 706.64 -56 709.28 -56 712 C-57.32 712 -58.64 712 -60 712 C-60 714.64 -60 717.28 -60 720 C-61.32 720 -62.64 720 -64 720 C-64 723.96 -64 727.92 -64 732 C-65.32 732 -66.64 732 -68 732 C-68 734.64 -68 737.28 -68 740 C-69.32 740 -70.64 740 -72 740 C-72 742.64 -72 745.28 -72 748 C-73.32 748 -74.64 748 -76 748 C-76 750.64 -76 753.28 -76 756 C-77.32 756 -78.64 756 -80 756 C-80 759.96 -80 763.92 -80 768 C-81.32 768 -82.64 768 -84 768 C-84 770.64 -84 773.28 -84 776 C-85.32 776 -86.64 776 -88 776 C-88 778.64 -88 781.28 -88 784 C-89.32 784 -90.64 784 -92 784 C-92 786.64 -92 789.28 -92 792 C-93.32 792 -94.64 792 -96 792 C-96 795.96 -96 799.92 -96 804 C-97.32 804 -98.64 804 -100 804 C-100 806.64 -100 809.28 -100 812 C-101.32 812 -102.64 812 -104 812 C-104 814.64 -104 817.28 -104 820 C-105.32 820 -106.64 820 -108 820 C-108 822.64 -108 825.28 -108 828 C-109.32 828 -110.64 828 -112 828 C-112 830.64 -112 833.28 -112 836 C-113.32 836 -114.64 836 -116 836 C-116 837.32 -116 838.64 -116 840 C-117.32 840 -118.64 840 -120 840 C-120 842.64 -120 845.28 -120 848 C-121.32 848 -122.64 848 -124 848 C-124 850.64 -124 853.28 -124 856 C-125.32 856 -126.64 856 -128 856 C-128 857.32 -128 858.64 -128 860 C-129.32 860 -130.64 860 -132 860 C-132 862.64 -132 865.28 -132 868 C-133.32 868 -134.64 868 -136 868 C-136 869.32 -136 870.64 -136 872 C-137.32 872 -138.64 872 -140 872 C-140 874.64 -140 877.28 -140 880 C-141.32 880 -142.64 880 -144 880 C-144 881.32 -144 882.64 -144 884 C-145.32 884 -146.64 884 -148 884 C-148 885.32 -148 886.64 -148 888 C-149.32 888 -150.64 888 -152 888 C-152 889.32 -152 890.64 -152 892 C-153.32 892 -154.64 892 -156 892 C-156 894.64 -156 897.28 -156 900 C-157.32 900 -158.64 900 -160 900 C-160 901.32 -160 902.64 -160 904 C-161.32 904 -162.64 904 -164 904 C-164 905.32 -164 906.64 -164 908 C-165.32 908 -166.64 908 -168 908 C-168 909.32 -168 910.64 -168 912 C-169.32 912 -170.64 912 -172 912 C-172 913.32 -172 914.64 -172 916 C-173.32 916 -174.64 916 -176 916 C-176 917.32 -176 918.64 -176 920 C-177.32 920 -178.64 920 -180 920 C-180 921.32 -180 922.64 -180 924 C-181.32 924 -182.64 924 -184 924 C-184 925.32 -184 926.64 -184 928 C-185.32 928 -186.64 928 -188 928 C-188 929.32 -188 930.64 -188 932 C-189.32 932 -190.64 932 -192 932 C-192 933.32 -192 934.64 -192 936 C-194.64 936 -197.28 936 -200 936 C-200 937.32 -200 938.64 -200 940 C-201.32 940 -202.64 940 -204 940 C-204 941.32 -204 942.64 -204 944 C-205.32 944 -206.64 944 -208 944 C-208 945.32 -208 946.64 -208 948 C-209.32 948 -210.64 948 -212 948 C-212 949.32 -212 950.64 -212 952 C-214.64 952 -217.28 952 -220 952 C-220 953.32 -220 954.64 -220 956 C-221.32 956 -222.64 956 -224 956 C-224 957.32 -224 958.64 -224 960 C-226.64 960 -229.28 960 -232 960 C-232 961.32 -232 962.64 -232 964 C-233.32 964 -234.64 964 -236 964 C-236 965.32 -236 966.64 -236 968 C-238.64 968 -241.28 968 -244 968 C-244 969.32 -244 970.64 -244 972 C-245.32 972 -246.64 972 -248 972 C-248 973.32 -248 974.64 -248 976 C-250.64 976 -253.28 976 -256 976 C-256 977.32 -256 978.64 -256 980 C-258.64 980 -261.28 980 -264 980 C-264 981.32 -264 982.64 -264 984 C-266.64 984 -269.28 984 -272 984 C-272 985.32 -272 986.64 -272 988 C-274.64 988 -277.28 988 -280 988 C-280 989.32 -280 990.64 -280 992 C-282.64 992 -285.28 992 -288 992 C-288 993.32 -288 994.64 -288 996 C-291.96 996 -295.92 996 -300 996 C-300 997.32 -300 998.64 -300 1000 C-303.96 1000 -307.92 1000 -312 1000 C-312 1001.32 -312 1002.64 -312 1004 C-315.96 1004 -319.92 1004 -324 1004 C-324 1005.32 -324 1006.64 -324 1008 C-329.28 1008 -334.56 1008 -340 1008 C-340 1009.32 -340 1010.64 -340 1012 C-345.28 1012 -350.56 1012 -356 1012 C-356 1013.32 -356 1014.64 -356 1016 C-365.24 1016 -374.48 1016 -384 1016 C-384 1017.32 -384 1018.64 -384 1020 C-613.68 1020 -843.36 1020 -1080 1020 C-1080 1017.36 -1080 1014.72 -1080 1012 C-1078.68 1012 -1077.36 1012 -1076 1012 C-1076 1009.36 -1076 1006.72 -1076 1004 C-1074.68 1004 -1073.36 1004 -1072 1004 C-1072 1001.36 -1072 998.72 -1072 996 C-1070.68 996 -1069.36 996 -1068 996 C-1068 992.04 -1068 988.08 -1068 984 C-1066.68 984 -1065.36 984 -1064 984 C-1064 981.36 -1064 978.72 -1064 976 C-1062.68 976 -1061.36 976 -1060 976 C-1060 973.36 -1060 970.72 -1060 968 C-1058.68 968 -1057.36 968 -1056 968 C-1056 965.36 -1056 962.72 -1056 960 C-1054.68 960 -1053.36 960 -1052 960 C-1052 956.04 -1052 952.08 -1052 948 C-1050.68 948 -1049.36 948 -1048 948 C-1048 945.36 -1048 942.72 -1048 940 C-1046.68 940 -1045.36 940 -1044 940 C-1044 937.36 -1044 934.72 -1044 932 C-1042.68 932 -1041.36 932 -1040 932 C-1040 929.36 -1040 926.72 -1040 924 C-1038.68 924 -1037.36 924 -1036 924 C-1036 920.04 -1036 916.08 -1036 912 C-1034.68 912 -1033.36 912 -1032 912 C-1032 909.36 -1032 906.72 -1032 904 C-1030.68 904 -1029.36 904 -1028 904 C-1028 901.36 -1028 898.72 -1028 896 C-1026.68 896 -1025.36 896 -1024 896 C-1024 893.36 -1024 890.72 -1024 888 C-1022.68 888 -1021.36 888 -1020 888 C-1020 884.04 -1020 880.08 -1020 876 C-1018.68 876 -1017.36 876 -1016 876 C-1016 873.36 -1016 870.72 -1016 868 C-1014.68 868 -1013.36 868 -1012 868 C-1012 865.36 -1012 862.72 -1012 860 C-1010.68 860 -1009.36 860 -1008 860 C-1008 857.36 -1008 854.72 -1008 852 C-1006.68 852 -1005.36 852 -1004 852 C-1004 848.04 -1004 844.08 -1004 840 C-1002.68 840 -1001.36 840 -1000 840 C-1000 837.36 -1000 834.72 -1000 832 C-998.68 832 -997.36 832 -996 832 C-996 829.36 -996 826.72 -996 824 C-994.68 824 -993.36 824 -992 824 C-992 821.36 -992 818.72 -992 816 C-990.68 816 -989.36 816 -988 816 C-988 812.04 -988 808.08 -988 804 C-986.68 804 -985.36 804 -984 804 C-984 801.36 -984 798.72 -984 796 C-982.68 796 -981.36 796 -980 796 C-980 793.36 -980 790.72 -980 788 C-978.68 788 -977.36 788 -976 788 C-976 785.36 -976 782.72 -976 780 C-974.68 780 -973.36 780 -972 780 C-972 777.36 -972 774.72 -972 772 C-970.68 772 -969.36 772 -968 772 C-968 768.04 -968 764.08 -968 760 C-760.76 760 -553.52 760 -340 760 C-340 758.68 -340 757.36 -340 756 C-339.01 756 -338.02 756 -337 756 C-336.67 753.36 -336.34 750.72 -336 748 C-335.01 748 -334.02 748 -333 748 C-332.67 745.36 -332.34 742.72 -332 740 C-331.01 740 -330.02 740 -329 740 C-328.67 737.36 -328.34 734.72 -328 732 C-327.01 732 -326.02 732 -325 732 C-324.67 728.04 -324.34 724.08 -324 720 C-322.68 720 -321.36 720 -320 720 C-320 717.36 -320 714.72 -320 712 C-318.68 712 -317.36 712 -316 712 C-316 709.36 -316 706.72 -316 704 C-315.01 704 -314.02 704 -313 704 C-312.67 701.36 -312.34 698.72 -312 696 C-311.01 696 -310.02 696 -309 696 C-308.67 693.36 -308.34 690.72 -308 688 C-307.01 688 -306.02 688 -305 688 C-304.67 684.04 -304.34 680.08 -304 676 C-303.01 676 -302.02 676 -301 676 C-300.67 673.36 -300.34 670.72 -300 668 C-299.01 668 -298.02 668 -297 668 C-296.67 665.36 -296.34 662.72 -296 660 C-295.01 660 -294.02 660 -293 660 C-292.67 657.36 -292.34 654.72 -292 652 C-291.01 652 -290.02 652 -289 652 C-288.67 648.04 -288.34 644.08 -288 640 C-287.01 640 -286.02 640 -285 640 C-284.67 637.36 -284.34 634.72 -284 632 C-283.01 632 -282.02 632 -281 632 C-280.67 629.36 -280.34 626.72 -280 624 C-279.01 624 -278.02 624 -277 624 C-276.67 621.36 -276.34 618.72 -276 616 C-275.01 616 -274.02 616 -273 616 C-272.67 613.36 -272.34 610.72 -272 608 C-271.01 608 -270.02 608 -269 608 C-268.67 604.04 -268.34 600.08 -268 596 C-267.01 596 -266.02 596 -265 596 C-264.67 593.36 -264.34 590.72 -264 588 C-263.01 588 -262.02 588 -261 588 C-260.67 585.36 -260.34 582.72 -260 580 C-259.01 580 -258.02 580 -257 580 C-256.67 577.36 -256.34 574.72 -256 572 C-255.01 572 -254.02 572 -253 572 C-252.67 568.04 -252.34 564.08 -252 560 C-251.01 560 -250.02 560 -249 560 C-248.67 557.36 -248.34 554.72 -248 552 C-247.01 552 -246.02 552 -245 552 C-244.67 549.36 -244.34 546.72 -244 544 C-243.01 544 -242.02 544 -241 544 C-240.67 541.36 -240.34 538.72 -240 536 C-239.01 536 -238.02 536 -237 536 C-236.67 532.04 -236.34 528.08 -236 524 C-234.68 524 -233.36 524 -232 524 C-232 521.36 -232 518.72 -232 516 C-231.01 516 -230.02 516 -229 516 C-228.67 513.36 -228.34 510.72 -228 508 C-227.01 508 -226.02 508 -225 508 C-224.67 505.36 -224.34 502.72 -224 500 C-223.01 500 -222.02 500 -221 500 C-220.67 497.36 -220.34 494.72 -220 492 C-219.01 492 -218.02 492 -217 492 C-216.67 488.04 -216.34 484.08 -216 480 C-215.01 480 -214.02 480 -213 480 C-212.67 477.36 -212.34 474.72 -212 472 C-211.01 472 -210.02 472 -209 472 C-208.67 469.36 -208.34 466.72 -208 464 C-207.01 464 -206.02 464 -205 464 C-204.67 461.36 -204.34 458.72 -204 456 C-203.01 456 -202.02 456 -201 456 C-200.67 452.04 -200.34 448.08 -200 444 C-198.68 444 -197.36 444 -196 444 C-196 441.36 -196 438.72 -196 436 C-195.01 436 -194.02 436 -193 436 C-192.67 433.36 -192.34 430.72 -192 428 C-191.01 428 -190.02 428 -189 428 C-188.67 425.36 -188.34 422.72 -188 420 C-187.01 420 -186.02 420 -185 420 C-184.67 417.36 -184.34 414.72 -184 412 C-183.01 412 -182.02 412 -181 412 C-180.67 408.04 -180.34 404.08 -180 400 C-179.01 400 -178.02 400 -177 400 C-176.67 397.36 -176.34 394.72 -176 392 C-175.01 392 -174.02 392 -173 392 C-172.67 389.36 -172.34 386.72 -172 384 C-171.01 384 -170.02 384 -169 384 C-168.67 381.36 -168.34 378.72 -168 376 C-167.01 376 -166.02 376 -165 376 C-164.67 372.04 -164.34 368.08 -164 364 C-162.68 364 -161.36 364 -160 364 C-160 361.36 -160 358.72 -160 356 C-159.01 356 -158.02 356 -157 356 C-156.67 353.36 -156.34 350.72 -156 348 C-155.01 348 -154.02 348 -153 348 C-152.67 345.36 -152.34 342.72 -152 340 C-151.01 340 -150.02 340 -149 340 C-148.67 337.36 -148.34 334.72 -148 332 C-147.01 332 -146.02 332 -145 332 C-144.67 328.04 -144.34 324.08 -144 320 C-143.01 320 -142.02 320 -141 320 C-140.67 317.36 -140.34 314.72 -140 312 C-139.01 312 -138.02 312 -137 312 C-136.67 309.36 -136.34 306.72 -136 304 C-135.01 304 -134.02 304 -133 304 C-132.67 301.36 -132.34 298.72 -132 296 C-131.01 296 -130.02 296 -129 296 C-128.67 292.04 -128.34 288.08 -128 284 C-127.01 284 -126.02 284 -125 284 C-124.67 281.36 -124.34 278.72 -124 276 C-123.01 276 -122.02 276 -121 276 C-120.67 273.36 -120.34 270.72 -120 268 C-119.01 268 -118.02 268 -117 268 C-116.67 265.36 -116.34 262.72 -116 260 C-115.01 260 -114.02 260 -113 260 C-112.67 256.04 -112.34 252.08 -112 248 C-110.68 248 -109.36 248 -108 248 C-108 245.36 -108 242.72 -108 240 C-107.01 240 -106.02 240 -105 240 C-104.67 237.36 -104.34 234.72 -104 232 C-103.01 232 -102.02 232 -101 232 C-100.67 229.36 -100.34 226.72 -100 224 C-99.01 224 -98.02 224 -97 224 C-96.67 221.36 -96.34 218.72 -96 216 C-95.01 216 -94.02 216 -93 216 C-92.67 212.04 -92.34 208.08 -92 204 C-91.01 204 -90.02 204 -89 204 C-88.67 201.36 -88.34 198.72 -88 196 C-87.01 196 -86.02 196 -85 196 C-84.67 193.36 -84.34 190.72 -84 188 C-83.01 188 -82.02 188 -81 188 C-80.67 185.36 -80.34 182.72 -80 180 C-79.01 180 -78.02 180 -77 180 C-76.67 176.04 -76.34 172.08 -76 168 C-74.68 168 -73.36 168 -72 168 C-72 165.36 -72 162.72 -72 160 C-71.01 160 -70.02 160 -69 160 C-68.67 157.36 -68.34 154.72 -68 152 C-67.01 152 -66.02 152 -65 152 C-64.67 149.36 -64.34 146.72 -64 144 C-62.68 144 -61.36 144 -60 144 C-60 141.36 -60 138.72 -60 136 C-59.01 136 -58.02 136 -57 136 C-56.67 132.04 -56.34 128.08 -56 124 C-55.01 124 -54.02 124 -53 124 C-52.67 121.36 -52.34 118.72 -52 116 C-51.01 116 -50.02 116 -49 116 C-48.67 113.36 -48.34 110.72 -48 108 C-47.01 108 -46.02 108 -45 108 C-44.67 105.36 -44.34 102.72 -44 100 C-43.01 100 -42.02 100 -41 100 C-40.67 96.04 -40.34 92.08 -40 88 C-38.68 88 -37.36 88 -36 88 C-36 85.36 -36 82.72 -36 80 C-35.01 80 -34.02 80 -33 80 C-32.67 77.36 -32.34 74.72 -32 72 C-31.01 72 -30.02 72 -29 72 C-28.67 69.36 -28.34 66.72 -28 64 C-27.01 64 -26.02 64 -25 64 C-24.67 61.36 -24.34 58.72 -24 56 C-23.01 56 -22.02 56 -21 56 C-20.67 52.04 -20.34 48.08 -20 44 C-19.01 44 -18.02 44 -17 44 C-16.67 41.36 -16.34 38.72 -16 36 C-15.01 36 -14.02 36 -13 36 C-12.67 33.36 -12.34 30.72 -12 28 C-11.01 28 -10.02 28 -9 28 C-8.67 25.36 -8.34 22.72 -8 20 C-7.01 20 -6.02 20 -5 20 C-4.67 16.04 -4.34 12.08 -4 8 C-2.68 8 -1.36 8 0 8 C0 5.36 0 2.72 0 0 Z " fill="#9B9C9B" transform="translate(1084,344)"/>
</svg>