<svg width="14" height="14" viewBox="0 0 14 14" fill="none" xmlns="http://www.w3.org/2000/svg">
<path d="M11.6251 11.6103H9.6786V8.56196C9.6786 7.83504 9.66562 6.89927 8.66622 6.89927C7.65241 6.89927 7.49729 7.69127 7.49729 8.50903V11.6101H5.55077V5.34141H7.41943V6.19811H7.44558C7.82661 5.5466 8.53508 5.15749 9.2893 5.18548C11.2622 5.18548 11.6259 6.48318 11.6259 8.17142L11.6251 11.6103ZM3.35446 4.48452C2.7306 4.48463 2.22478 3.97898 2.22467 3.35512C2.22455 2.73124 2.7302 2.2254 3.35406 2.22529C3.9779 2.22518 4.48373 2.73084 4.48384 3.35471C4.48389 3.65429 4.36493 3.94165 4.15313 4.15352C3.94133 4.3654 3.65404 4.48446 3.35446 4.48452ZM4.32771 11.6103H2.37917V5.34141H4.32771V11.6103ZM12.5955 0.417636H1.40105C0.871971 0.411665 0.438097 0.835474 0.431641 1.36455V12.6057C0.437877 13.1351 0.871716 13.5593 1.40105 13.5537H12.5955C13.1259 13.5603 13.5615 13.1361 13.5688 12.6057V1.36374C13.5612 0.833618 13.1257 0.409833 12.5955 0.41674" fill="#7ACAF1"/>
</svg>
