<svg width="14" height="12" viewBox="0 0 14 12" fill="none" xmlns="http://www.w3.org/2000/svg">
<path d="M13.5688 1.91087C13.0854 2.12523 12.566 2.27011 12.0208 2.33527C12.5773 2.0017 13.0046 1.4735 13.2058 0.844146C12.6851 1.15298 12.1083 1.37729 11.4944 1.49819C11.0027 0.974371 10.3022 0.647034 9.52702 0.647034C8.0385 0.647034 6.8317 1.85378 6.8317 3.34222C6.8317 3.55346 6.85558 3.75917 6.90152 3.95643C4.66148 3.84403 2.67551 2.77102 1.34618 1.14039C1.11418 1.53846 0.981268 2.00145 0.981268 2.49539C0.981268 3.43045 1.45714 4.25542 2.18034 4.73872C1.73848 4.72475 1.32292 4.60351 0.959501 4.40164C0.959308 4.41288 0.959308 4.42417 0.959308 4.43552C0.959308 5.7414 1.88836 6.83076 3.12135 7.07833C2.89516 7.13993 2.65706 7.17284 2.41123 7.17284C2.23757 7.17284 2.0687 7.15597 1.90418 7.1245C2.24713 8.19531 3.24249 8.97453 4.4219 8.99631C3.49947 9.71916 2.33732 10.1501 1.07459 10.1501C0.857052 10.1501 0.642496 10.1373 0.431641 10.1124C1.62441 10.8771 3.04115 11.3233 4.56322 11.3233C9.52073 11.3233 12.2317 7.21638 12.2317 3.65476C12.2317 3.53789 12.2291 3.42166 12.2239 3.30609C12.7505 2.92608 13.2074 2.45136 13.5688 1.91087Z" fill="#7ACAF1"/>
</svg>
